<svg width="1em" height="1em" viewBox="0 0 512 512" fill="none" xmlns="http://www.w3.org/2000/svg">
  <rect width="512" height="512" rx="100" fill="#F25533" />
  <path
    d="M209.831 217.444C216.137 209.928 218.871 201.324 218.032 191.631C217.175 181.94 212.984 173.937 205.458 167.623C197.933 161.308 189.324 158.57 179.631 159.409C169.94 160.266 161.937 164.457 155.623 171.983C149.308 179.508 146.574 188.112 147.421 197.795C148.27 207.496 152.457 215.504 159.983 221.818C167.508 228.133 176.121 230.866 185.822 230.017C195.505 229.17 203.504 224.984 209.818 217.458M399.459 376.436C398.129 378.021 396.646 379.262 395.011 380.158C393.367 381.063 391.4 381.639 389.109 381.884L349.01 386.685C347.061 386.901 345.189 386.747 343.393 386.224C341.597 385.701 339.902 384.979 338.307 384.058C336.712 383.136 335.403 381.804 334.38 380.062C333.348 378.312 332.552 376.477 331.994 374.558L325.683 345.949L292.83 344.647C290.979 344.628 289.299 344.344 287.791 343.796C286.295 343.274 284.847 342.426 283.447 341.252C282.048 340.077 280.956 338.795 280.173 337.403C279.381 336.022 278.741 334.518 278.255 332.892L272.648 307.676L230.812 272.571C216.335 282.77 199.09 287.352 179.078 286.319C159.049 285.306 140.839 277.922 124.447 264.168C104.875 247.745 94.0183 227.245 91.8772 202.668C89.7181 178.093 96.8501 156.02 113.273 136.447C129.696 116.875 150.2 106.013 174.785 103.863C199.352 101.713 221.421 108.85 240.994 125.273C257.611 139.216 268.068 155.979 272.365 175.561C276.681 195.142 275.148 212.808 267.767 228.561L395.476 335.721C397.051 337.043 398.338 338.59 399.336 340.362C400.353 342.132 400.959 344.191 401.156 346.541L402.804 365.384C403.001 367.634 402.818 369.64 402.256 371.403C401.722 373.173 400.79 374.851 399.459 376.436Z"
    fill="white"
  />
</svg>
