<svg viewBox="0 0 1598 512" fill="none" xmlns="http://www.w3.org/2000/svg">
  <rect width="1598" height="512" rx="100" fill="#F25533" />
  <path
    d="M209.831 217.444C216.137 209.928 218.871 201.324 218.032 191.631C217.175 181.94 212.984 173.937 205.458 167.623C197.933 161.308 189.324 158.57 179.631 159.409C169.94 160.266 161.937 164.457 155.623 171.983C149.308 179.508 146.574 188.112 147.421 197.795C148.27 207.496 152.457 215.504 159.983 221.818C167.508 228.133 176.121 230.866 185.822 230.017C195.505 229.17 203.504 224.984 209.818 217.458M399.459 376.436C398.129 378.021 396.646 379.262 395.011 380.158C393.367 381.063 391.4 381.639 389.109 381.884L349.01 386.685C347.061 386.901 345.189 386.747 343.393 386.224C341.597 385.701 339.902 384.979 338.307 384.058C336.712 383.136 335.403 381.804 334.38 380.062C333.348 378.312 332.552 376.477 331.994 374.558L325.683 345.949L292.83 344.647C290.979 344.628 289.299 344.344 287.791 343.796C286.295 343.274 284.847 342.426 283.447 341.252C282.048 340.077 280.956 338.795 280.173 337.403C279.381 336.022 278.741 334.518 278.255 332.892L272.648 307.676L230.812 272.571C216.335 282.77 199.09 287.352 179.078 286.319C159.049 285.306 140.839 277.922 124.447 264.168C104.875 247.745 94.0183 227.245 91.8772 202.668C89.7181 178.093 96.8501 156.02 113.273 136.447C129.696 116.875 150.2 106.013 174.785 103.863C199.352 101.713 221.421 108.85 240.994 125.273C257.611 139.216 268.068 155.979 272.365 175.561C276.681 195.142 275.148 212.808 267.767 228.561L395.476 335.721C397.051 337.043 398.338 338.59 399.336 340.362C400.353 342.132 400.959 344.191 401.156 346.541L402.804 365.384C403.001 367.634 402.818 369.64 402.256 371.403C401.722 373.173 400.79 374.851 399.459 376.436Z"
    fill="white"
  />
  <path
    d="M556.593 260.882L545.139 237.301C561.159 226.671 575.607 221.356 588.482 221.356C599.262 221.356 604.652 227.42 604.652 239.547C604.652 242.991 602.556 253.546 598.363 271.212C594.321 288.729 592.3 302.129 592.3 311.411C592.3 320.693 594.321 327.58 598.363 332.072C589.979 338.21 581.221 341.279 572.088 341.279C562.955 341.279 556.443 338.285 552.55 332.296C548.807 326.308 546.936 317.549 546.936 306.021C538.851 308.417 530.467 309.614 521.783 309.614C501.422 309.614 484.953 303.326 472.377 290.75C459.95 278.174 453.737 259.609 453.737 235.056C453.737 224.575 455.983 213.945 460.474 203.166C464.966 192.237 471.329 182.131 479.563 172.848C487.798 163.566 498.502 156.005 511.678 150.166C525.002 144.178 538.701 141.183 552.775 141.183C566.998 141.183 578.077 143.803 586.012 149.043C594.097 154.283 598.139 161.545 598.139 170.827C598.139 180.11 595.07 187.371 588.931 192.611C582.943 197.701 576.056 200.246 568.27 200.246C560.485 200.246 553.448 198.6 547.16 195.306C541.022 191.862 536.081 186.996 532.338 180.708C524.254 184.601 517.292 192.237 511.453 203.615C505.614 214.993 502.695 226.896 502.695 239.322C502.695 251.749 505.09 261.106 509.881 267.394C514.822 273.533 520.96 276.602 528.296 276.602C538.926 276.602 548.358 271.362 556.593 260.882ZM683.405 309.614C662.894 309.614 647.024 304.299 635.796 293.67C624.716 283.04 619.177 268.667 619.177 250.551C619.177 226.447 627.411 206.909 643.88 191.937C660.499 176.816 681.309 169.255 706.312 169.255C720.236 169.255 730.791 172.399 737.977 178.687C745.163 184.826 748.757 192.985 748.757 203.166C748.757 217.09 741.945 228.693 728.32 237.975C714.846 247.108 693.96 251.749 665.664 251.899C666.113 261.48 668.284 269.041 672.177 274.581C676.069 279.97 680.935 282.665 686.774 282.665C692.613 282.665 697.628 280.719 701.821 276.826C706.162 272.934 708.333 266.571 708.333 257.738C730.192 257.738 741.121 262.903 741.121 273.233C741.121 282.067 735.731 290.376 724.952 298.161C714.172 305.797 700.323 309.614 683.405 309.614ZM702.494 195.53C694.859 195.53 687.822 199.348 681.384 206.984C675.096 214.619 670.53 223.602 667.685 233.933C682.657 232.735 693.886 229.366 701.371 223.827C709.007 218.138 712.825 212.149 712.825 205.861C712.825 202.866 711.852 200.396 709.905 198.45C708.109 196.504 705.638 195.53 702.494 195.53ZM794.845 309.614C786.012 309.614 779.499 307.294 775.307 302.653C771.115 298.011 769.019 291.873 769.019 284.237C769.019 276.602 770.516 264.175 773.511 246.958C776.655 229.741 779.874 214.02 783.167 199.797L771.49 181.831C786.312 173.447 800.011 169.255 812.587 169.255C825.163 169.255 831.451 174.944 831.451 186.323C831.451 193.809 829.729 201.444 826.286 209.229L828.532 210.352C844.551 182.954 864.913 169.255 889.616 169.255C907.732 169.255 916.79 178.313 916.79 196.429C916.79 204.214 914.544 217.389 910.052 235.954C905.711 254.519 903.54 268.517 903.54 277.949C903.54 287.381 905.112 294.268 908.256 298.61C900.321 305.946 891.937 309.614 883.103 309.614C865.886 309.614 857.277 300.332 857.277 281.767C857.277 274.88 859.523 263.202 864.014 246.733C868.506 230.265 870.752 219.56 870.752 214.619C870.752 207.882 868.207 204.513 863.116 204.513C858.924 204.513 854.133 206.385 848.743 210.128C843.354 213.721 838.113 218.662 833.023 224.95C828.082 231.088 823.89 238.948 820.447 248.53C817.003 257.962 815.282 267.619 815.282 277.5C815.282 287.232 816.854 294.268 819.998 298.61C812.063 305.946 803.679 309.614 794.845 309.614ZM964.133 348.69C954.85 348.69 948.338 346.37 944.595 341.729C941.001 337.237 939.205 330.65 939.205 321.966C939.205 313.432 941.001 296.14 944.595 270.089C948.338 244.039 951.931 221.806 955.374 203.39L942.798 185.424C952.081 180.035 960.09 175.992 966.828 173.297C973.565 170.453 980.227 169.031 986.815 169.031C997.594 169.031 1002.98 176.142 1002.98 190.365C1002.98 192.311 1002.68 196.279 1002.09 202.268L1004.33 203.39C1008.67 192.611 1014.96 184.227 1023.2 178.238C1031.43 172.1 1041.09 169.031 1052.17 169.031C1063.39 169.031 1072.3 174.121 1078.89 184.302C1085.48 194.333 1088.77 206.834 1088.77 221.806C1088.77 241.868 1081.74 260.133 1067.66 276.602C1060.77 284.687 1051.57 291.274 1040.04 296.364C1028.51 301.305 1015.64 303.775 1001.41 303.775C997.07 303.775 991.381 303.401 984.344 302.653C983.895 307.893 983.671 312.758 983.671 317.25C983.671 326.832 985.991 333.644 990.633 337.686C982.248 345.022 973.415 348.69 964.133 348.69ZM993.552 255.716L988.387 281.767C1006.5 281.318 1020.95 275.404 1031.73 264.026C1042.66 252.497 1048.12 239.921 1048.12 226.297C1048.12 219.26 1046.7 213.646 1043.86 209.454C1041.16 205.112 1037.19 202.941 1031.95 202.941C1013.39 202.941 1000.59 220.533 993.552 255.716ZM1120.35 284.013C1120.8 251.375 1121.03 229.217 1121.03 217.539C1121.03 200.172 1116.98 187.296 1108.9 178.912C1116.68 172.474 1125.22 169.255 1134.5 169.255C1146.03 169.255 1153.96 174.121 1158.31 183.852C1162.65 193.434 1164.82 207.807 1164.82 226.971C1164.82 246.135 1164.44 264.55 1163.7 282.216H1171.33C1183.76 260.807 1191.24 244.039 1193.79 231.911C1193.64 224.276 1192.52 215.518 1190.42 205.636C1188.47 195.605 1186.3 188.569 1183.91 184.526C1186.15 181.682 1189.6 179.361 1194.24 177.564C1198.88 175.618 1204.04 174.645 1209.73 174.645C1215.42 174.645 1220.66 176.367 1225.45 179.81C1230.39 183.254 1232.86 188.344 1232.86 195.081C1232.86 199.273 1232.19 203.241 1230.84 206.984C1229.5 210.727 1228.15 214.619 1226.8 218.662C1225.45 222.554 1224.33 225.773 1223.43 228.318L1222.53 282.216H1230.17C1238.7 265.747 1246.49 248.455 1253.53 230.339C1260.71 212.224 1264.31 198.45 1264.31 189.018C1264.31 185.574 1263.63 182.206 1262.28 178.912C1272.46 172.474 1282.27 169.255 1291.7 169.255C1303.98 169.255 1310.12 176.292 1310.12 190.365C1310.12 196.803 1308.47 204.888 1305.18 214.619C1301.88 224.201 1296.79 236.628 1289.91 251.899C1283.17 267.02 1279.65 274.88 1279.35 275.479L1282.5 288.504C1276.66 292.996 1267.82 297.637 1256 302.428C1244.32 307.219 1233.61 309.614 1223.88 309.614C1208.31 309.614 1198.95 302.802 1195.81 289.178C1181.74 302.802 1166.84 309.614 1151.12 309.614C1142.44 309.614 1135.1 307.668 1129.11 303.775C1123.27 299.733 1120.35 293.146 1120.35 284.013ZM1412.71 287.606L1410.46 286.483C1398.79 301.904 1384.86 309.614 1368.69 309.614C1356.71 309.614 1346.53 304.898 1338.15 295.466C1329.92 285.884 1325.8 273.009 1325.8 256.839C1325.8 236.777 1332.83 218.512 1346.91 202.043C1353.8 193.958 1363 187.446 1374.53 182.505C1386.06 177.415 1398.93 174.869 1413.16 174.869C1415.85 174.869 1420.64 175.169 1427.53 175.768C1427.83 172.624 1428.5 168.806 1429.55 164.314L1416.98 146.348C1435.69 135.419 1450.44 129.954 1461.22 129.954C1467.36 129.954 1471.7 131.227 1474.24 133.772C1476.79 136.168 1478.06 140.809 1478.06 147.696C1478.06 154.433 1474.69 173.597 1467.95 205.187C1461.37 236.777 1458.07 259.235 1458.07 272.56C1458.07 285.735 1460.39 294.418 1465.03 298.61C1456.65 305.946 1447.89 309.614 1438.76 309.614C1429.78 309.614 1423.19 307.369 1419 302.877C1414.8 298.236 1412.71 293.146 1412.71 287.606ZM1368.02 248.305C1368.02 256.839 1370.19 263.577 1374.53 268.517C1379.02 273.458 1384.56 275.928 1391.15 275.928C1399.68 275.928 1407.47 271.886 1414.51 263.801C1416.9 237.152 1420.27 214.095 1424.61 194.632C1407.39 194.632 1393.62 200.172 1383.29 211.251C1373.11 222.33 1368.02 234.681 1368.02 248.305Z"
    fill="white"
  />
</svg>
